<?xml version="1.0" standalone="no"?><!DOCTYPE svg PUBLIC "-//W3C//DTD SVG 1.1//EN" "http://www.w3.org/Graphics/SVG/1.1/DTD/svg11.dtd"><svg t="1563088517888" class="icon" viewBox="0 0 1024 1024" version="1.1" xmlns="http://www.w3.org/2000/svg" p-id="9027" xmlns:xlink="http://www.w3.org/1999/xlink" width="32" height="32"><defs><style type="text/css"></style></defs><path d="M901.313208 98.922264c25.213585 0 44.244528 19.030943 44.244528 44.244528v700.860378c0 33.521509-26.469434 83.175849-83.175849 83.175849H236.099623c22.701887-27.338868 36.999245-63.855094 36.999245-102.593208V143.070189c0-36.516226 24.05434-44.244528 44.244528-44.244529H901.313208m0-53.035471H317.343396c-56.899623 0-97.376604 38.061887-97.376604 97.376603v681.346416c0 49.750943-36.516226 97.376604-77.862641 97.376603-41.346415 0-58.445283-21.639245-58.445283-77.862641V512.966038c0-17.871698 12.558491-38.931321 38.931321-38.931321h38.93132c10.433208 0 19.030943-58.445283-38.93132-58.445283S25.213585 469.977358 25.213585 512.966038v330.964528c0 63.565283 56.030189 136.307925 136.307924 136.307925h700.860378c87.136604 0 136.307925-73.612075 136.307924-136.307925V143.070189c0-55.643774-44.147925-97.28-97.376603-97.28z" fill="#e98f36" p-id="9028"></path><path d="M797.367547 337.823396c16.13283 0 29.17434-13.041509 29.17434-29.174339s-13.041509-29.17434-29.17434-29.17434H427.471698c-16.13283 0-29.17434 13.041509-29.17434 29.17434s13.041509 29.17434 29.17434 29.174339h369.895849z m0 58.348679H563.779623c-16.13283 0-29.17434 13.041509-29.17434 29.17434s13.041509 29.17434 29.17434 29.17434h233.587924c16.13283 0 29.17434-13.041509 29.17434-29.17434s-13.041509-29.17434-29.17434-29.17434z m0 136.307925H446.889057c-16.13283 0-29.17434 13.041509-29.17434 29.17434s13.041509 29.17434 29.17434 29.174339h350.381886c16.13283 0 29.17434-13.041509 29.17434-29.174339s-12.944906-29.17434-29.077736-29.17434z" fill="#e98f36" p-id="9029"></path></svg>