<?xml version="1.0" standalone="no"?><!DOCTYPE svg PUBLIC "-//W3C//DTD SVG 1.1//EN" "http://www.w3.org/Graphics/SVG/1.1/DTD/svg11.dtd"><svg t="1563088503795" class="icon" viewBox="0 0 1084 1024" version="1.1" xmlns="http://www.w3.org/2000/svg" p-id="8852" xmlns:xlink="http://www.w3.org/1999/xlink" width="33.875" height="32"><defs><style type="text/css"></style></defs><path d="M970.089412 539.286588h-15.841883c9.818353 15.902118 15.841882 34.153412 15.841883 53.850353v323.162353c0 59.452235-51.079529 107.700706-114.085647 107.700706H228.231529c-63.006118 0-114.085647-48.188235-114.085647-107.700706V593.136941c0-19.696941 6.023529-37.948235 15.841883-53.850353h-15.841883C51.079529 539.286588 0 491.098353 0 431.585882v-53.850353c0-59.512471 51.079529-107.700706 114.145882-107.700705h172.513883l-45.839059-43.369412a127.277176 127.277176 0 0 1 0-187.090824 145.588706 145.588706 0 0 1 197.75247 0l101.677177 96.195765c1.264941-0.240941 36.080941-32.527059 104.327529-96.978824 54.874353-51.742118 143.841882-51.742118 198.656 0 54.874353 51.802353 54.874353 135.770353 0 187.512471l-46.260706 43.730824h173.116236c63.066353 0 114.145882 48.188235 114.145882 107.700705v53.850353c0 59.512471-51.079529 107.700706-114.145882 107.700706z m-85.534118 430.863059c15.661176 0 28.491294-12.047059 28.491294-26.925176V566.211765c0-14.878118-12.769882-26.925176-28.551529-26.925177h-313.825883v430.863059h313.825883z m-684.875294 0h313.886118V539.286588h-313.825883c-15.781647 0-28.551529 12.047059-28.551529 26.925177v377.012706c0 14.878118 12.769882 26.925176 28.551529 26.925176zM114.206118 323.885176c-31.503059 0-57.103059 24.094118-57.103059 53.850353v53.850353c0 29.756235 25.539765 53.850353 57.103059 53.850353h399.420235V323.885176H114.145882z m296.899764-244.796235a94.147765 94.147765 0 0 0-127.698823 0 81.92 81.92 0 0 0 0 120.530824l74.571294 70.415059h155.648v-27.407059c0-41.321412 0.240941-66.56-25.901177-91.196236L411.045647 79.088941z m389.903059 0a94.147765 94.147765 0 0 0-127.698823 0l-76.67953 72.282353c-26.262588 24.816941-25.901176 49.272471-25.901176 91.738353v26.925177h155.648l74.631529-70.415059a81.92 81.92 0 0 0 0-120.530824z m169.140706 244.796235H570.669176v161.551059h399.420236c31.563294 0 57.103059-24.094118 57.103059-53.850353v-53.850353c0-29.756235-25.539765-53.850353-57.103059-53.850353z" fill="#f5f5f5" p-id="8853"></path></svg>