<?xml version="1.0" standalone="no"?><!DOCTYPE svg PUBLIC "-//W3C//DTD SVG 1.1//EN" "http://www.w3.org/Graphics/SVG/1.1/DTD/svg11.dtd"><svg
            xmlns="http://www.w3.org/2000/svg"
            viewBox="0 0 116.9 116.9"
            width="200px"
            height="200px"
        >
            <linearGradient id="linearGradient_x2_2" x1="0%" y1="0%" x2="80%" y2="100%">
                <stop offset="0%" style="stop-color:#1890ff; stop-opacity:1"/>
                <stop offset="100%" style="stop-color:#f36f68; stop-opacity:1"/>
            </linearGradient>
            <path
                d="M58.5 58.5L30.6 30.6 58.5 2.8l9.4 9.4C78 22.4 78 38.9 67.8 49.1l-9.3 9.4zm-9.4-9.4c-10.2-10.2-26.7-10.2-36.9 0l-9.4 9.4 27.8 27.8 27.8-27.8-9.3-9.4zm0 18.7c-10.2 10.2-10.2 26.7 0 36.9l9.4 9.4 27.8-27.8-27.8-27.8-9.4 9.3zm18.7 0C78 78 94.5 78 104.7 67.8l9.4-9.4-27.8-27.8-27.8 27.9 9.3 9.3z"
                style="stroke:url(#linearGradient_x2_2)" 
                stroke-width="4"
                fill="none"
            ></path>
        </svg>