<?xml version="1.0" standalone="no"?><!DOCTYPE svg PUBLIC "-//W3C//DTD SVG 1.1//EN" "http://www.w3.org/Graphics/SVG/1.1/DTD/svg11.dtd"><svg t="1562738475525" class="icon" viewBox="0 0 1024 824" version="1.1" xmlns="http://www.w3.org/2000/svg" p-id="2279" xmlns:xlink="http://www.w3.org/1999/xlink" width="32" height="32"><defs><style type="text/css"></style></defs><path d="M683.584 505.28000003a9.28 9.28 0 0 1 0 13.152l-10.256 10.528a9.104 9.104 0 0 1-6.544 2.72 9.024 9.024 0 0 1-6.544-2.72l-94.224-94.464-99.04 99.568a9.2 9.2 0 0 1-13.104 0l-9.488-9.152c-1.76-1.744-4.096-5.184-4.096-7.664s0.992-4.848 2.736-6.56l98.496-99.216-96.048-96.256a9.28 9.28 0 0 1 0-13.136l8.992-8.976a9.2 9.2 0 0 1 13.104 0l97.456 95.904 93.632-91.728a9.2 9.2 0 0 1 13.088 0l9.088 10.192a9.28 9.28 0 0 1 0 13.136l-91.808 90.864 94.56 93.808z m0 0" fill="#e5e5e5" p-id="2280"></path><path d="M867.136 158.14400003c-13.872-13.872-31.568-21.136-51.568-21.136H351.008c-37.904 0-68.176 14.672-90 44.352L89.008 411.40800003l172.176 228.496 0.288 0.368 0.288 0.336c10.768 13.808 22.496 24.496 35.856 31.84 15.792 8.688 33.76 13.504 53.392 13.504h464.752c40.848 0 71.744-34.72 71.744-76.432V210.28800003c0.016-19.968-6.48-38.256-20.368-52.144z m-11.616 470.864c0 13.776-24.624 24.976-38.4 24.976H352.352c-23.648 0-46.896-10.432-58.848-25.744L128.352 411.47200003 288.368 193.28000003c14.816-20.272 47.104-24.272 63.984-24.272h463.984c13.76 0 39.168 11.168 39.168 24.976v435.024h0.016z m0 0" fill="#e5e5e5" p-id="2281"></path></svg>