<?xml version="1.0" standalone="no"?><!DOCTYPE svg PUBLIC "-//W3C//DTD SVG 1.1//EN" "http://www.w3.org/Graphics/SVG/1.1/DTD/svg11.dtd"><svg t="1563087802283" class="icon" viewBox="0 0 1024 1024" version="1.1" xmlns="http://www.w3.org/2000/svg" p-id="6276" xmlns:xlink="http://www.w3.org/1999/xlink" width="32" height="32"><defs><style type="text/css"></style></defs><path d="M1024 716.401778c0-49.720889-38.058667-94.435556-109.511111-130.161778 0.113778-2.048 0.398222-4.096 0.398222-6.144V484.750222c0-1.194667-0.568889-2.275556-0.796444-3.413333 0.455111-3.185778 0.796444-6.542222 0.796444-10.24 0-10.183111-1.991111-20.48-5.575111-30.72C983.210667 404.593778 1024 358.001778 1024 307.541333V212.138667c0-1.194667-0.568889-2.275556-0.796444-3.413334 0.455111-3.242667 0.796444-6.542222 0.796444-10.24C1024 87.267556 823.068444 0 566.613333 0c-256.568889 0-457.500444 87.210667-457.500444 198.542222 0 3.527111 0.341333 6.769778 0.739555 9.898667-0.227556 1.251556-0.739556 2.389333-0.739555 3.697778v95.402666c0 10.24 1.991111 20.48 5.575111 30.72C40.789333 374.101333 0 420.636444 0 471.096889c0 3.527111 0.341333 6.826667 0.739556 9.841778C0.568889 482.247111 0 483.384889 0 484.750222v95.345778c0 49.720889 38.058667 94.435556 109.454222 130.275556-0.170667 1.991111-0.398222 3.982222-0.398222 6.030222 0 3.527111 0.341333 6.826667 0.739556 9.898666-0.227556 1.251556-0.739556 2.389333-0.739556 3.697778v95.516445C109.056 936.789333 309.987556 1024 566.499556 1024S1024 936.789333 1024 825.457778v-95.459556c0-1.137778-0.568889-2.218667-0.739556-3.299555 0.455111-3.242667 0.796444-6.599111 0.796445-10.24z m-42.723556 0c0 3.128889-0.739556 6.257778-1.308444 9.671111-13.255111 70.257778-175.104 146.147556-413.468444 146.147555-14.791111 0-29.240889-0.284444-43.406223-0.853333-4.551111-0.170667-8.817778-0.568889-13.255111-0.796444-9.500444-0.512-19.057778-0.967111-28.273778-1.706667-5.404444-0.455111-10.467556-1.080889-15.758222-1.592889-7.964444-0.739556-16.042667-1.479111-23.779555-2.389333-5.461333-0.682667-10.638222-1.536-15.928889-2.275556-7.281778-1.024-14.620444-1.991111-21.617778-3.128889-5.176889-0.853333-10.126222-1.877333-15.189333-2.844444-6.769778-1.251556-13.653333-2.446222-20.138667-3.868445-4.892444-1.024-9.443556-2.218667-14.165333-3.299555-6.371556-1.479111-12.8-2.958222-18.944-4.551111-4.494222-1.137778-8.647111-2.446222-12.970667-3.697778-5.973333-1.706667-12.003556-3.413333-17.692444-5.176889l-11.946667-4.096c-5.461333-1.877333-11.093333-3.754667-16.327111-5.802667-3.697778-1.365333-7.111111-2.901333-10.638222-4.380444-5.12-2.048-10.24-4.096-14.961778-6.257778-3.299556-1.536-6.314667-3.128889-9.500445-4.664889-4.551111-2.218667-9.159111-4.437333-13.368889-6.712889-2.958222-1.592889-5.575111-3.242667-8.362666-4.835555a272.782222 272.782222 0 0 1-11.776-7.111111c-2.56-1.706667-4.778667-3.413333-7.168-5.063111a193.877333 193.877333 0 0 1-10.012445-7.395556c-2.161778-1.706667-3.982222-3.413333-5.973333-5.12-2.844444-2.56-5.688889-5.063111-8.192-7.623111-1.763556-1.763556-3.242667-3.584-4.835556-5.404444a104.106667 104.106667 0 0 1-6.257777-7.566223c-1.308444-1.877333-2.389333-3.754667-3.584-5.632a80.042667 80.042667 0 0 1-4.266667-7.395555c-0.910222-1.991111-1.536-3.925333-2.275556-5.802667a56.206222 56.206222 0 0 1-1.592888-5.006222l2.104888 0.682667c2.56 0.967111 5.347556 1.820444 7.964445 2.730666 8.760889 3.128889 17.578667 6.087111 26.794667 8.874667 3.982222 1.251556 8.078222 2.275556 12.174222 3.413333 8.192 2.332444 16.497778 4.551111 25.031111 6.712889 4.664889 1.137778 9.500444 2.218667 14.336 3.299556a904.931556 904.931556 0 0 0 66.332444 12.117333c5.461333 0.796444 10.865778 1.592889 16.440889 2.275556 8.874667 1.137778 17.806222 2.104889 26.851556 3.015111 5.461333 0.568889 10.808889 1.137778 16.327111 1.592889 9.841778 0.796444 19.740444 1.365333 29.752889 1.934222 4.778667 0.284444 9.557333 0.625778 14.392889 0.853333 14.734222 0.568889 29.582222 0.967111 44.487111 0.967111h0.170666c14.336 0 28.444444-0.284444 42.382223-0.796444 4.437333-0.170667 8.704-0.512 13.084444-0.682667 9.443556-0.512 18.887111-0.967111 28.103111-1.706667 5.12-0.341333 10.126222-0.910222 15.189334-1.365333 8.362667-0.739556 16.668444-1.479111 24.746666-2.446222 5.233778-0.568889 10.296889-1.308444 15.473778-1.991111 7.736889-1.024 15.473778-2.048 23.04-3.242667 5.12-0.796444 10.126222-1.706667 15.189333-2.56a1014.328889 1014.328889 0 0 0 36.238223-7.168 624.526222 624.526222 0 0 0 34.304-8.476444c6.712889-1.820444 13.312-3.754667 19.797333-5.688889 4.152889-1.308444 8.362667-2.56 12.401778-3.925334 6.542222-2.161778 12.856889-4.380444 19.057777-6.656 3.697778-1.365333 7.395556-2.673778 11.036445-4.096 6.371556-2.503111 12.515556-5.12 18.545778-7.850666 3.015111-1.308444 6.200889-2.616889 9.159111-3.982222 6.542222-3.072 12.743111-6.257778 18.830222-9.557334 2.104889-1.137778 4.380444-2.218667 6.428444-3.356444 16.156444-9.045333 30.549333-18.773333 42.894223-29.070222l1.991111-1.820445c5.290667-4.551111 10.24-9.159111 14.734222-13.880889 1.365333-1.479111 2.503111-3.015111 3.811556-4.551111 3.527111-3.925333 6.826667-7.907556 9.784888-11.946667 1.308444-1.877333 2.389333-3.811556 3.640889-5.688888 1.706667-2.730667 3.754667-5.461333 5.290667-8.305778 50.232889 26.624 78.620444 58.311111 78.620444 88.576z m0-408.860445c0 36.067556-39.480889 73.557333-108.373333 102.741334-80.554667 34.247111-189.44 53.077333-306.460444 53.077333-217.827556 0-368.810667-63.146667-405.333334-125.496889a60.074667 60.074667 0 0 1-9.386666-30.321778v-24.120889l3.242666 2.730667a256.284444 256.284444 0 0 0 18.659556 15.018667c1.877333 1.365333 3.754667 2.787556 5.688889 4.096 6.257778 4.323556 12.913778 8.533333 19.911111 12.686222l1.365333 0.853333c7.623111 4.380444 15.701333 8.533333 24.120889 12.629334 2.275556 1.137778 4.664889 2.161778 6.997333 3.242666 6.371556 2.958222 12.970667 5.802667 19.740445 8.590223l8.533333 3.413333c7.566222 2.958222 15.36 5.745778 23.324445 8.476444l5.745777 1.991111c10.012444 3.242667 20.309333 6.371556 31.004445 9.272889 2.56 0.739556 5.290667 1.365333 7.907555 2.048a778.012444 778.012444 0 0 0 61.952 13.539556l9.557334 1.706667c11.832889 1.934222 23.893333 3.754667 36.124444 5.290666 2.389333 0.341333 4.892444 0.568889 7.281778 0.853334 10.069333 1.137778 20.195556 2.218667 30.492444 3.128888l13.084445 1.024c8.874667 0.625778 17.863111 1.194667 26.908444 1.649778l13.312 0.568889c11.832889 0.455111 23.722667 0.682667 35.726223 0.739556l4.096 0.113777 4.721777-0.113777c11.662222 0 23.153778-0.284444 34.588445-0.682667l14.677333-0.682667c8.419556-0.455111 16.725333-0.910222 25.031111-1.536l14.791111-1.137777c9.159111-0.853333 18.204444-1.820444 27.079111-2.844445l10.524445-1.137778c11.776-1.536 23.381333-3.242667 34.759111-5.12l12.060444-2.161777a794.851556 794.851556 0 0 0 58.993778-12.913778l9.500445-2.389334c10.410667-2.844444 20.593778-5.916444 30.435555-9.102222l6.257778-2.275555c7.964444-2.673778 15.701333-5.461333 23.153778-8.362667l8.078222-3.185778c7.224889-2.958222 14.222222-6.030222 20.935111-9.102222 1.877333-0.967111 3.811556-1.820444 5.688889-2.673778 17.294222-8.362667 32.881778-17.408 46.648889-26.965333l3.697778-2.673778c5.745778-4.152889 11.150222-8.362667 16.213333-12.686222l3.015111-2.616889 3.868445-3.299556v24.120889zM566.499556 42.666667c196.096 0 414.72 64 414.72 155.875555 0 3.072-0.682667 6.144-1.251556 9.500445l-0.056889 0.113777c-4.152889 21.959111-22.755556 44.487111-53.76 65.080889-68.152889 45.226667-195.868444 81.066667-359.708444 81.066667-238.364444 0-400.213333-75.889778-413.411556-146.204444-0.625778-3.185778-1.365333-6.371556-1.365333-9.671112C151.722667 106.723556 370.346667 42.666667 566.499556 42.666667zM135.281778 375.466667c4.039111 5.12 8.704 10.069333 13.653333 14.961777 0.853333 0.739556 1.763556 1.422222 2.56 2.218667 4.323556 3.982222 8.760889 7.964444 13.653333 11.832889 1.706667 1.365333 3.640889 2.673778 5.461334 3.982222 4.209778 3.185778 8.533333 6.314667 13.141333 9.386667 2.332444 1.536 4.892444 3.015111 7.395556 4.551111 4.380444 2.673778 8.874667 5.404444 13.596444 8.021333 2.844444 1.592889 5.859556 3.072 8.817778 4.608 4.664889 2.446222 9.386667 4.892444 14.279111 7.168l10.126222 4.551111a469.902222 469.902222 0 0 0 42.154667 16.497778 754.801778 754.801778 0 0 0 42.154667 12.743111 744.618667 744.618667 0 0 0 49.038222 11.434667l15.189333 3.015111c5.973333 1.080889 11.946667 2.048 18.033778 3.015111l16.156444 2.503111c5.916444 0.853333 11.946667 1.592889 17.976889 2.275556l17.408 2.161778c5.688889 0.568889 11.548444 1.024 17.351111 1.536 6.257778 0.568889 12.572444 1.194667 19.000889 1.649777 5.12 0.341333 10.24 0.568889 15.416889 0.796445 7.281778 0.398222 14.506667 0.853333 21.845333 1.137778l5.461334 0.056889c10.353778 0.284444 20.821333 0.568889 31.288889 0.568888 9.329778 0 18.488889-0.341333 27.704889-0.568888 5.063111-0.113778 10.183111-0.113778 15.132444-0.284445 8.305778-0.341333 16.384-0.910222 24.462222-1.422222 6.257778-0.398222 12.458667-0.682667 18.545778-1.137778 7.793778-0.625778 15.36-1.479111 23.04-2.275555 6.314667-0.625778 12.629333-1.251556 18.830222-1.991112 7.452444-0.853333 14.677333-1.991111 21.959111-3.015111 6.257778-0.910222 12.515556-1.763556 18.602667-2.844444 7.054222-1.137778 13.937778-2.446222 20.821333-3.811556a746.666667 746.666667 0 0 0 108.316445-29.240889c2.048-0.739556 4.266667-1.365333 6.257778-2.161777a48.583111 48.583111 0 0 1 2.104888 13.653333c0 3.356444-0.739556 6.485333-1.365333 9.728a66.503111 66.503111 0 0 1-10.069333 23.608889c-40.391111 62.634667-191.488 122.538667-403.342222 122.538667-148.992 0-268.060444-29.639111-339.626667-69.006223-42.951111-23.608889-68.835556-50.801778-73.784889-77.198222C43.463111 477.468444 42.666667 474.339556 42.666667 471.096889c0-33.28 33.450667-67.697778 92.558222-95.687111zM42.666667 580.096v-24.120889c0.910222 0.910222 2.048 1.706667 3.015111 2.616889 1.763556 1.592889 3.697778 3.128889 5.518222 4.721778 4.096 3.413333 8.476444 6.826667 12.970667 10.183111 2.104889 1.536 4.096 3.072 6.257777 4.551111 5.916444 3.982222 12.060444 7.964444 18.602667 11.776l2.730667 1.706667c7.395556 4.266667 15.36 8.362667 23.608889 12.344889 2.56 1.251556 5.233778 2.446222 7.850666 3.640888a464.952889 464.952889 0 0 0 27.932445 11.889778c7.281778 2.844444 14.734222 5.518222 22.414222 8.078222 2.218667 0.796444 4.323556 1.592889 6.599111 2.275556 9.955556 3.299556 20.195556 6.371556 30.72 9.216l8.192 2.104889a722.944 722.944 0 0 0 61.838222 13.482667l9.386667 1.706666c11.946667 1.991111 24.007111 3.754667 36.352 5.347556l6.371556 0.682666c10.410667 1.251556 20.878222 2.275556 31.573333 3.242667l12.117333 0.967111c9.386667 0.682667 18.887111 1.251556 28.444445 1.706667 3.982222 0.227556 7.907556 0.455111 11.832889 0.568889 13.312 0.455111 26.737778 0.796444 40.334222 0.796444h0.170666c13.482667 0 26.851556-0.341333 40.049778-0.796444l12.174222-0.568889c9.443556-0.455111 18.773333-1.024 28.046223-1.706667 4.152889-0.341333 8.362667-0.568889 12.515555-0.967111 10.410667-0.910222 20.707556-1.991111 30.890667-3.185778 2.275556-0.284444 4.721778-0.455111 6.997333-0.796444 12.231111-1.536 24.234667-3.299556 35.953778-5.290667l10.296889-1.820444a836.323556 836.323556 0 0 0 60.529778-13.198222l9.159111-2.332445c10.353778-2.844444 20.423111-5.802667 30.151111-9.045333 2.730667-0.853333 5.347556-1.877333 8.078222-2.787556a550.798222 550.798222 0 0 0 48.355556-19.171555l9.102222-4.209778c7.964444-3.868444 15.644444-7.850667 22.869333-11.946667l5.176889-3.242666a281.770667 281.770667 0 0 0 23.552-15.644445 230.968889 230.968889 0 0 0 11.264-8.817778c2.275556-1.934222 4.721778-3.868444 6.826667-5.859555l2.503111-2.104889v24.064a52.906667 52.906667 0 0 1-1.649778 13.084444c-17.294222 68.664889-180.167111 142.734222-413.070222 142.734223-79.815111 0-157.013333-9.329778-223.459556-26.055112a550.968889 550.968889 0 0 1-92.387555-31.232C78.677333 650.069333 42.666667 614.172444 42.666667 580.096z m938.496 245.361778c0 73.671111-170.268444 155.818667-414.72 155.818666-244.451556 0-414.72-82.147556-414.72-155.818666v-24.177778c0.967111 0.967111 2.104889 1.820444 3.072 2.730667a284.444444 284.444444 0 0 0 18.659555 14.961777l5.916445 4.266667c6.087111 4.152889 12.515556 8.305778 19.342222 12.288l1.934222 1.137778c7.509333 4.380444 15.530667 8.533333 23.893333 12.572444 2.389333 1.194667 4.949333 2.275556 7.452445 3.413334a471.836444 471.836444 0 0 0 50.688 20.195555l6.542222 2.275556c9.898667 3.185778 20.081778 6.257778 30.606222 9.102222l8.647111 2.275556a754.062222 754.062222 0 0 0 60.586667 13.198222c3.584 0.568889 7.111111 1.308444 10.752 1.934222 11.548444 1.934222 23.381333 3.697778 35.441778 5.176889 3.015111 0.398222 6.144 0.682667 9.159111 1.024 9.329778 1.137778 18.773333 2.104889 28.273778 2.958222l14.620444 1.137778c8.192 0.568889 16.497778 1.137778 24.803556 1.479111 5.12 0.284444 10.126222 0.568889 15.303111 0.739556 10.126222 0.341333 20.366222 0.568889 30.72 0.568888 2.787556 0.056889 5.518222 0.227556 8.305778 0.227556 3.072 0 5.973333-0.170667 8.988444-0.227556a1140.508444 1140.508444 0 0 0 46.193778-1.365333 979.057778 979.057778 0 0 0 64.056889-5.233778c4.152889-0.455111 8.419556-0.853333 12.572444-1.365333 11.605333-1.479111 22.926222-3.128889 34.133334-5.006222l13.084444-2.332445a813.169778 813.169778 0 0 0 57.856-12.686222l10.069333-2.56c10.353778-2.844444 20.423111-5.859556 30.151111-9.102222 2.389333-0.739556 4.608-1.536 6.940445-2.332445a547.953778 547.953778 0 0 0 30.947555-11.605333c6.940444-2.844444 13.653333-5.688889 20.138667-8.760889l6.485333-3.015111a310.556444 310.556444 0 0 0 45.966223-26.567111l4.778666-3.413333c5.176889-3.754667 10.126222-7.566222 14.734223-11.548445l4.266666-3.640889c1.080889-1.024 2.275556-1.934222 3.413334-2.901333v24.177778z" fill="#f5f5f5" p-id="6277"></path></svg>