<?xml version="1.0" standalone="no"?><!DOCTYPE svg PUBLIC "-//W3C//DTD SVG 1.1//EN" "http://www.w3.org/Graphics/SVG/1.1/DTD/svg11.dtd"><svg t="1562814609249" class="icon" viewBox="0 0 1024 1024" version="1.1" xmlns="http://www.w3.org/2000/svg" p-id="2854" xmlns:xlink="http://www.w3.org/1999/xlink" width="32" height="32"><defs><style type="text/css"></style></defs><path d="M513.959 264.713c-191.908 0-347.482 155.574-347.482 347.482s155.574 347.482 347.482 347.482 347.482-155.574 347.482-347.482-155.573-347.482-347.482-347.482z m178.603 316.265l-68.575 66.528 16.376 94.163c5.629 31.729-12.794 45.546-41.452 30.194l-84.44-44.523-84.44 44.523c-28.658 14.841-47.082 2.047-41.452-30.194l16.376-94.163-68.575-66.528c-23.029-22.517-16.376-44.011 15.864-49.129l94.675-13.817 42.476-85.975c14.329-28.658 36.846-29.17 51.687 0l42.476 85.975 94.675 13.817c30.193 4.606 37.87 26.1 14.329 49.129zM838.924 64.105H623.987c-11.77 0-20.982 8.188-23.541 18.935L534.43 213.538s141.756 8.7 225.684 89.045l98.769-199.585c3.071-4.094 5.118-8.7 5.118-14.329-0.513-13.305-11.26-24.564-25.077-24.564zM490.419 213.538L424.402 83.04c-2.559-10.747-11.77-18.935-23.541-18.935H185.924c-13.817 0-24.564 11.259-24.564 24.564 0 5.629 2.047 10.235 5.118 14.329l98.769 199.585c83.415-80.346 225.172-89.045 225.172-89.045z" fill="#e9e9e9" p-id="2855"></path></svg>