<?xml version="1.0" standalone="no"?><!DOCTYPE svg PUBLIC "-//W3C//DTD SVG 1.1//EN" "http://www.w3.org/Graphics/SVG/1.1/DTD/svg11.dtd"><svg t="1563087294051" class="icon" viewBox="0 0 1024 1024" version="1.1" xmlns="http://www.w3.org/2000/svg" p-id="2183" xmlns:xlink="http://www.w3.org/1999/xlink" width="32" height="32"><defs><style type="text/css"></style></defs><path d="M812.828444 170.666667h-101.546666a28.444444 28.444444 0 1 1 0-56.888889H881.777778a28.444444 28.444444 0 0 1 28.444444 28.444444v170.609778a28.444444 28.444444 0 0 1-56.888889 0V210.602667l-331.377777 330.808889a28.444444 28.444444 0 1 1-40.192-40.248889L812.828444 170.666667zM500.906667 71.111111a28.444444 28.444444 0 0 1 1.422222 56.888889C294.343111 133.176889 128 303.502222 128 512c0 212.110222 171.975111 384.085333 384.113778 384.085333 207.473778 0 377.287111-164.778667 383.914666-371.569777a28.444444 28.444444 0 1 1 56.832 1.820444c-7.594667 237.482667-202.552889 426.638222-440.746666 426.638222C268.515556 952.974222 71.111111 755.541333 71.111111 511.971556 71.111111 272.583111 262.087111 77.084444 500.906667 71.111111z" p-id="2184" fill="#e98f36"></path></svg>