<?xml version="1.0" standalone="no"?><!DOCTYPE svg PUBLIC "-//W3C//DTD SVG 1.1//EN" "http://www.w3.org/Graphics/SVG/1.1/DTD/svg11.dtd"><svg t="1562224115206" class="icon" viewBox="0 0 1024 1024" version="1.1" xmlns="http://www.w3.org/2000/svg" p-id="774" xmlns:xlink="http://www.w3.org/1999/xlink" width="32" height="32"><defs><style type="text/css"></style></defs><path d="M682.666667 810.666667 341.333333 810.666667 341.333333 213.333333 682.666667 213.333333M704 128 320 128C284.586667 128 256 156.586667 256 192L256 832C256 867.413333 284.586667 896 320 896L704 896C739.413333 896 768 867.413333 768 832L768 192C768 156.586667 739.413333 128 704 128M810.666667 725.333333 896 725.333333 896 298.666667 810.666667 298.666667M938.666667 384 938.666667 640 1024 640 1024 384M128 725.333333 213.333333 725.333333 213.333333 298.666667 128 298.666667M0 640 85.333333 640 85.333333 384 0 384 0 640Z" p-id="775" fill="#f5f5f5"></path></svg>