<?xml version="1.0" encoding="UTF-8"?>
<svg width="202px" height="202px" viewBox="0 0 202 202" version="1.1" xmlns="http://www.w3.org/2000/svg" xmlns:xlink="http://www.w3.org/1999/xlink">
    <!-- Generator: Sketch 52.5 (67469) - http://www.bohemiancoding.com/sketch -->
    <title>Slice 1</title>
    <desc>Created with Sketch.</desc>
    <g id="页面-1" stroke="none" stroke-width="1" fill="none" fill-rule="evenodd">
        <path d="M0.00298232305,100.780498 C0.244080595,118.980502 15.0727501,133.66 33.33,133.66 C51.7376507,133.66 66.66,118.737651 66.66,100.33 C66.66,81.9223493 51.7376507,67 33.33,67 C14.9626261,67 0.0653182369,81.8571192 0.000214204315,100.20922 C7.14244856e-05,100.139497 0,100.069757 0,100 C0,44.771525 44.771525,0 100,0 C155.228475,0 200,44.771525 200,100 C200,155.228475 155.228475,200 100,200 C45.0319248,200 0.422423866,155.649671 0.00298232305,100.780498 Z M133.33,95.6215336 C131.042436,79.443555 117.139392,67 100.33,67 C81.9223493,67 67,81.9223493 67,100.33 C67,118.737651 81.9223493,133.66 100.33,133.66 C117.139392,133.66 131.042436,121.216445 133.33,105.038466 C135.617564,121.216445 149.520608,133.66 166.33,133.66 C184.737651,133.66 199.66,118.737651 199.66,100.33 C199.66,81.9223493 184.737651,67 166.33,67 C149.520608,67 135.617564,79.443555 133.33,95.6215336 Z" id="合并形状" stroke="#E5E5E5" fill="#888888"></path>
        <path d="M0,100 L199.66,100" id="直线" stroke="#E5E5E5" stroke-linecap="square" stroke-dasharray="0,5"></path>
    </g>
</svg>