<?xml version="1.0" standalone="no"?><!DOCTYPE svg PUBLIC "-//W3C//DTD SVG 1.1//EN" "http://www.w3.org/Graphics/SVG/1.1/DTD/svg11.dtd"><svg t="1562816368658" class="icon" viewBox="0 0 1024 1024" version="1.1" xmlns="http://www.w3.org/2000/svg" p-id="4387" xmlns:xlink="http://www.w3.org/1999/xlink" width="32" height="32"><defs><style type="text/css"></style></defs><path d="M515.416749 806.526453a403.263227 403.263227 0 1 1 403.263227-403.263226 403.828093 403.828093 0 0 1-403.263227 403.263226z m0-743.004664a339.741437 339.741437 0 1 0 339.741437 339.741438 340.152249 340.152249 0 0 0-339.741437-339.741438z" p-id="4388" fill="#e1e1e1"></path><path d="M512.232957 581.042074a177.830199 177.830199 0 1 1 177.830199-177.830199 177.932902 177.932902 0 0 1-177.830199 177.830199z m0-292.138609a114.30841 114.30841 0 1 0 114.30841 114.30841 114.257058 114.257058 0 0 0-114.30841-114.257058zM304.208083 1023.743243h-2.516222a31.529813 31.529813 0 0 1-28.243318-23.159521l-34.610902-125.400331-147.019307 40.670378a31.735219 31.735219 0 0 1-35.586581-47.29472l146.043629-237.192518a31.837922 31.837922 0 0 1 54.278522 33.327115l-103.832707 168.278823 99.724588-27.6271a31.837922 31.837922 0 0 1 39.02713 22.235194l19.667619 71.121809 64.138007-142.911188a31.683867 31.683867 0 0 1 57.770423 26.035204l-100.032696 223.533022a31.940625 31.940625 0 0 1-28.808185 18.383833zM720.206479 1023.691891a31.683867 31.683867 0 0 1-28.910887-18.743293l-100.032697-223.533022a31.683867 31.683867 0 1 1 57.770423-26.035204l64.138007 142.911188 19.667619-71.121809a32.094679 32.094679 0 0 1 39.027131-22.235194l99.724587 27.6271-103.832706-168.278823a31.837922 31.837922 0 0 1 54.278521-33.327115l146.043629 237.192518a31.735219 31.735219 0 0 1-35.586581 47.29472l-147.019306-40.619026-34.610903 125.400331a31.529813 31.529813 0 0 1-28.243317 23.15952 6.983802 6.983802 0 0 1-2.41352 0.308109z" p-id="4389" fill="#e1e1e1"></path></svg>