<?xml version="1.0" standalone="no"?><!DOCTYPE svg PUBLIC "-//W3C//DTD SVG 1.1//EN" "http://www.w3.org/Graphics/SVG/1.1/DTD/svg11.dtd"><svg t="1562816373573" class="icon" viewBox="0 0 1024 1024" version="1.1" xmlns="http://www.w3.org/2000/svg" p-id="4515" xmlns:xlink="http://www.w3.org/1999/xlink" width="32" height="32"><defs><style type="text/css"></style></defs><path d="M748.338706 120.41551c-30.758538-34.673707-75.522044-56.203046-125.264958-56.203046L399.38413 64.212464c-49.768497 0-94.507444 21.529339-125.263935 56.203046-117.435643 3.076058-210.266911 48.369637-210.266911 167.486572 0 108.488877 77.172637 198.800765 179.232081 219.494063 28.516474 123.8354 109.047602 215.57787 240.182244 226.76056l0 57.044204L362.197182 791.20091c-41.380456 0-74.65428 37.46324-74.65428 83.878362 0 46.416146 33.274848 83.884502 74.65428 83.884502l298.06249 0c41.385573 0 74.65428-37.467333 74.65428-83.884502 0-46.415123-33.244148-83.878362-74.65428-83.878362L539.189246 791.20091l0-57.044204C670.299329 722.692606 750.603283 631.231545 779.095197 507.396145c102.335736-20.693298 179.508373-111.00621 179.508373-219.494063C958.603571 168.785148 865.773326 123.491569 748.338706 120.41551zM233.856166 446.718181c-66.266239-22.36845-114.082268-85.000929-114.082268-158.816099 0-76.336596 50.891064-102.895485 120.79311-109.888759-5.874801 17.058514-8.946766 35.232432-8.946766 53.968146l0 167.762865 0 0.558725C231.622288 415.960667 232.457306 431.619298 233.856166 446.718181zM623.073748 847.121524c30.757514 0 55.920614 12.58155 55.920614 27.957749 0 15.380292-25.164123 27.962865-55.920614 27.962865L399.38413 903.042137c-30.757514 0-55.920614-12.582573-55.920614-27.962865 0-15.376199 25.164123-27.957749 55.920614-27.957749l83.884502 0 55.920614 0L623.073748 847.121524zM734.914976 399.74331l0 0.558725 0 0.559748c-0.810459 154.066935-69.620637 278.490735-223.683479 278.490735-154.345274 0-223.688595-125.263935-223.688595-279.609209L287.542902 231.980445c0-61.797461 50.049906-111.847367 111.841228-111.847367l223.688595 0c61.791321 0 111.841228 50.049906 111.841228 111.847367L734.913952 399.74331zM788.600689 446.718181c1.428535-14.539134 2.240017-29.640064 2.240017-45.016263l0-0.840134 0-1.118474L790.840706 231.980445c0-18.73469-3.050476-36.909631-8.951883-53.968146 69.902046 6.993275 120.79311 33.552164 120.79311 109.888759C902.682957 361.716228 854.868975 424.348708 788.600689 446.718181z" p-id="4516" fill="#e1e1e1"></path></svg>